<svg id="Layer_1" data-name="Layer 1" xmlns="http://www.w3.org/2000/svg" viewBox="0 0 1920 1080"><defs><style>.cls-1{fill:#c9d0ff;opacity:0.62;}.cls-2{fill:#f6c9ff;opacity:0.54;}.cls-3{fill:#fffdb3;opacity:0.66;}.cls-4,.cls-5{fill:none;}.cls-4,.cls-6{stroke:#000;}.cls-4,.cls-5,.cls-6{stroke-miterlimit:10;stroke-width:2.5px;opacity:0.9;}.cls-5{stroke:#0c0c0c;}.cls-7{font-size:125px;}.cls-7,.cls-8{font-family:Didot-Bold, Didot;font-weight:700;}.cls-8{font-size:65px;fill:#666;}</style></defs><title>Artboard 1</title><rect class="cls-1" x="657.01" y="278.69" width="1077.32" height="402.75"/><rect class="cls-2" x="357.19" y="440.4" width="987.73" height="586.59"/><rect class="cls-3" x="1053.15" y="592.66" width="752.38" height="378.22"/><path class="cls-4" d="M351.69,545.31s4.17,9.64,17.61,21.91,5.56,39,5.56,39-11.12,16.65-23.17,19.28-26.41-.87-38-8.76-23.17-17.53-39.38-18.41-30.12-.43-44.48,9.21-32.9,42.94-32.9,42.94L167.75,721l-15.28,44.69L82.85,954.55s-4.39,13.84-9.51,29.76-8,24.92,12.44,33.91"/><path class="cls-4" d="M269.69,735.56S234.3,829.07,228.35,841.9s-54.89,116.66-51.91,128.23c0,0-3.64,5.31-15.87-1.57s114.41,39.72,168.31,44.1"/><path class="cls-5" d="M228.35,841.9s0,149.21,8.27,149.54"/><path class="cls-4" d="M345.71,626.29s.74,41.51-4.78,55.55-27.26,74.09-27.26,74.09-16.57,54.17-23.12,65.6-20,34.27-26.23,41.77S229,900.84,229,900.84"/><path class="cls-4" d="M351.69,625.5s1.06,27.31,0,40.19-11.82,42.82-11.82,42.82L318.34,773.8s-10.13,26.35-6.33,45.51,12.66,49.12,18.36,60.5c2.95,5.88,20.86,41.68,37.49,74.9l29.95,59.85"/><path class="cls-4" d="M368.54,956.07c14.61-36.81,19-51.41,17.91-63.58"/><path class="cls-4" d="M531.92,677.21S533.2,689.3,563.86,699,629,725,629,725s13.42,1.81,19.81,24.78-6.39,42.9-6.39,42.9L622,837.35l-30.73,70.7s-5,11.48-17.18,30.82A365.74,365.74,0,0,0,553,978.15a61.33,61.33,0,0,1-17.25,23.57c-12.78,10.87-23,12.84-23,12.84S530,995.67,536.39,970.9s1.92-62.85,1.92-62.85l-8.95-64.66s-7.66-53.18-6.39-75.54-1.91-70.09,1.92-73.12Z"/><path class="cls-4" d="M512.75,1014.56c-24,12.28-21,15.17-45.63,13.59s-28-6.6-28-6.6-2.49,4-3.32-11.74,0-60.52,0-60.52,3.88-51.35,8.31-65.24,15.51-69.17,15.51-69.17,12.75-59,11.36-60.52,4-58.69,3.1-84.63S477.76,633,477.76,633l21.18-28.23,5.7-9.26s3.64,0,4.1,6.89,2.28.65-2.28,14.87-18.68,28.87-18.68,28.87"/><path class="cls-4" d="M531.92,677.21c5.72-45.57,17.14-72.47,20.21-82.9s-6.59-53.63-6.59-53.63L531.92,505.8s-6.29-26.59-19.17-32-11.56,12.46-11.56,12.46l11.56,29.91s17.86,37.38,21.82,54.82,8.34,23.26,5.27,34.06"/><path class="cls-4" d="M506.14,499.07c-9.32,1.48-11.2,8-11.2,8s-1.26,7.11,3.13,16.6,8.46,16.89,11.91,27.26,2.77,25.19,2.77,25.19a18.86,18.86,0,0,1,2.41,1.93,21.3,21.3,0,0,1,6.28,13"/><path class="cls-4" d="M512.75,576.12c-1.35,1-9.26,6.78-9,15.16a13.67,13.67,0,0,0,.86,4.25"/><path class="cls-4" d="M511.12,473.24c2.34,9.94-.65,3.09,2.34,9.94s16.76,19.49,16.76,19.49"/><path class="cls-4" d="M503.28,534.62l1,52.58"/><path class="cls-4" d="M495.84,517.49c-.32,7-2.18,23.62-15.24,37.9-15,16.38-35.49,19.57-46.25,21.23a106.59,106.59,0,0,1-30,0c-7.38-1-16.65-2.3-27-7.55a67,67,0,0,1-24.74-21.86"/><path class="cls-4" d="M397.1,528.05a80,80,0,0,0,29.36,1.66c6.13-.8,13.06-1.71,20.32-6,11.67-6.81,22.79-19.87,18.16-22.48l-17.89-10.11c-1.18-.52-17.18-7.29-32.05,1.52a32,32,0,0,0-14.69,20.21Z"/><path class="cls-4" d="M399.55,528.61q5.44-6.57,10.9-13.12c4-7.12,8.53-10.17,12.09-11.62,5.06-2.06,13.5-3.05,13.5-3.05h0a43.39,43.39,0,0,1,17.56,2l.39.13,11.62,2.23"/><path class="cls-4" d="M454.33,503.51a45.15,45.15,0,0,1-9.75,7.24c-5,2.73-9,3.73-15.85,5.44-7.57,1.89-11.17,1.91-13.34,1.8a35.09,35.09,0,0,1-6-.84"/><path class="cls-4" d="M401.45,466.77a26.1,26.1,0,0,0-1.82,8.32c-.16,3.39-.28,5.93,1.55,7.42,2.26,1.85,5.95.82,6.65.61"/><path class="cls-4" d="M433.65,462.66a15.58,15.58,0,0,1,3.78,3.87c1.3,1.92,2.7,4,1.89,6s-3.43,2.68-4.09,2.84"/><path class="cls-4" d="M426.12,468.73c-1.59,1.94-1.18,2.83-1.1,3,.62,1.17,3.58,1.33,7.43.13"/><path class="cls-4" d="M414.29,471.94c.55,2.4-.23,3-.37,3.14-1.09.81-3.84-.25-6.76-2.9"/><path class="cls-4" d="M501.16,499.07l.6-11.33h0v-.05s-.64,12.68-.66,12.67S501.12,499.83,501.16,499.07Z"/><path class="cls-4" d="M504.9,473.87q.36-6.71.71-13.41"/><path class="cls-4" d="M557.34,414.72c-3-2.14-7.29-4.39-11.16-3.21-2.28.69-2.6,2-6.78,6.42-3.8,4-8.66,8.26-11,10.36-3.7,3.26-5.31,4.41-5.41,6.54-.1,2.29,1.66,2.92,2.14,6.07.65,4.23-1.92,7-.88,7.73s3.62-1.07,5.24-2.5c3.08-2.72,2.36-4.41,5.2-7,2-1.87,2.61-1.19,6.29-3.81s4.3-4.13,5.16-3.82c1.54.54,1.66,6.23-1,10.69a18.46,18.46,0,0,1-5,5.19c-4.61,3.64-6.23,2.81-9.19,5.59-4.29,4-2.72,6.84-6.41,9-2.83,1.67-6.07,1.4-11.36,1a43.82,43.82,0,0,1-8.05-1.41c-7.79-1.91-17.87-5.61-21.57-4.25a6.82,6.82,0,0,0-1.41.74,7,7,0,0,0-2.39,3.69c-1.31,3.29-7.86,5.53-13,4.52-2.56-.51-4.19-1.79-7.47-4.35-3-2.37-5-3.88-5.84-6.6-.7-2.13-1-5.72,1.13-7.84s4.88-1.42,5.09-2.5c.27-1.4-4.56-2.23-8.67-6.24-.44-.43-5.85-5.8-4.11-9,1.28-2.35,5.88-2.55,8.56-2.14s3,1.36,7.29,3c4.5,1.7,4.7.86,8.18,2.26,5.36,2.17,5.05,4.26,9.55,5.59,3.54,1.05,3.87-.2,8.56,1,2.58.64,7.23,1.79,8.17,4.88.06.2.7,2.42-.5,3.45-2.21,1.9-8.09-2.4-20.25-5.35-3.9-.95-5.61-1.07-6.29-.24-1.28,1.56,1.73,5.74,4,8.92a54.26,54.26,0,0,0,7,7.91"/><ellipse class="cls-6" cx="511.12" cy="443.05" rx="14.12" ry="9.48"/><path class="cls-4" d="M461.84,409.94c.48-5.39-1.89-7.32-.21-10.7,1.09-2.21,3.66-4.55,5.9-4.22,2,.29,3.66,3.7,6.93,10.51,1.62,3.38,1.94,4.43,3.39,6,2.1,2.23,3.79,2.56,6.48,4.3,3.4,2.2,5.27,4.64,7.5,7.58,5,6.51,3.53,8.93,7.5,12.47,4.54,4.06,9.66,3.8,9.56,4.4-.22,1.28-23.47,2.25-40.59-9.54-3.31-2.28-9.07-6.35-9.11-11.73C459.15,415.61,461.39,414.93,461.84,409.94Z"/><path class="cls-4" d="M513.94,432.66a48,48,0,0,1,.31-7.44,28.12,28.12,0,0,1,1.24-6.42c1.18-3.32,2.63-4.33,4-6.59,3.69-6.26,1.42-13.65,1.13-14.56s-3-9.2-9.57-10.94c-2.77-.74-3.35.42-9.71,1.16-9.38,1.1-11.71-1-15.27,1.32s-4.46,6.51-4.94,8.9c-2.08,10.29,5.32,18.93,7,20.79"/><path class="cls-4" d="M521.42,406.07c7.52-.79,12.09-3.15,14.89-5.21,2.34-1.72,5.05-4.4,7.56-3.65a5.28,5.28,0,0,1,2.78,2.63c.9,1.9-.24,2.69.46,4.37,1,2.36,4.32,3.44,6.32,4.09,2.67.86,3.46.44,4.17,1.31,1.52,1.86-1.27,4.74.15,6.57,1.17,1.5,3.42,0,5.86,1.6s1.13,4,3.86,7c2.15,2.37,3.9,2,4.32,3.51.16.57.34,2.22-6.94,8.31-4.1,3.43-6.15,5.15-8.49,6.13a23.45,23.45,0,0,1-12.66,1.38"/><path class="cls-4" d="M523.31,462.27a17.91,17.91,0,0,0,9.76,6.16c4.11.83,5.95-.66,13.88-2.19a113.49,113.49,0,0,1,18.21-1.9c8.66-.17,12.35.93,13.72-1.16s-1.77-4.35-1.23-9.93c.29-3,1.3-3.19,2.44-7.57,1-3.95,2.26-8.72.34-10.81-2.35-2.55-9.58-1.24-17.54,3.09"/><path class="cls-4" d="M422,377.94a80.32,80.32,0,0,0,2.18-16.81A60.17,60.17,0,0,0,422,342.85c-.84-3-1.59-5-5.2-13.21-.88-2-9.88-22.43-10.78-22.1s6,25.27,2,27.65a15,15,0,0,0-3.75,3.33,4,4,0,0,0-.61,1.09c-1.69,4.4,4.27,7.81,4.64,15.33.13,2.57-.51,3.31-1.21,6.78-2.46,12.23,2.76,16.48,2.49,33.32-.07,4.82-.58,9,0,9.14,1.24.18.79-19.32,12.47-26.24,6.51-3.86,9.63.1,21.2-3.54s17-11,19.64-9.14c1.51,1.07.75,4.22,0,7.37-.71,2.95-2.83,9.81-10,16.81a51,51,0,0,1-15.59,10,62.82,62.82,0,0,1-27.74,4.72,53.3,53.3,0,0,0,14.65,17.1,57.16,57.16,0,0,0,22.35,10.28"/><path class="cls-4" d="M406,307.54c-2.74,1.88-6.84,4.73-11.76,8.31-6.31,4.6-9.47,6.89-10.53,8-6.64,7.24-8,18-6.3,26.14,1.9,9,7.73,15.49,7.52,15.61s-3.39-8.37-11.61-13.22c-5.28-3.11-10.52-3.47-17.61-4-5.24-.36-11.95-.75-19.63,2-3.23,1.18-6.6,2.41-9.67,5.46-2.89,2.89-2.64,4.55-6.78,13.38C316,377.11,315.28,377,314,381.1c-1.62,5.31-3,9.89-.86,13.78,3.39,6.09,13.45,6.74,18.9,7.1,5.23.34,9.48-.4,17.75-1.91,13.14-2.39,19.82-4.84,20.21-4s-4.88,4.52-11.55,6.69c-8.29,2.7-12.24.9-26.55,2.32-13.37,1.32-14.88,3.37-15.3,4.5-.64,1.74.64,3.07,4.19,9.42,5.13,9.2,4.29,9.74,6.06,11.33,5.85,5.3,19.16,3.12,28.28-1.77,10.41-5.59,11.17-12.44,21.94-24.16,10.39-11.32,22.79-19.83,23.83-18.88.8.73-3.66,8.37-11.15,14.23s-13.86,6.7-15.4,12.29c-.13.45-1.52,5.52.72,7.06a2.6,2.6,0,0,0,.8.35c4.18,1.06,11-4.68,11-4.68,10.57-8.9,14.66-15,16.12-14.34s-.29,6.6-2.16,10.7-4.33,6.93-7.46,10.47a40.19,40.19,0,0,1-7.94,7.51c-2.91,2-5.75,3.92-9.87,4.32-3.71.37-9.53-.41-10.59-3.18s2.82-7.66,10.11-11.15"/><path class="cls-4" d="M320.82,419a57.42,57.42,0,0,0-11.65-.59c-6.22.33-7.18,1.42-7.49,1.86-1.87,2.65,1.35,7.63,2.44,9.3,3.61,5.57,7.59,6.48,7.45,9.78-.09,2.25-1.95,2.38-2.4,5.24a8.82,8.82,0,0,0,3.85,8.42c.87.56,2.83,1.56,8.72.81,4.17-.53,10.71-1.36,17.27-6.05,6.76-4.83,9.3-10.73,11.07-10,1.5.62-.54,4.87,2.16,7.74,2,2.07,5.22,2.17,8.42,2.27s5.61-.37,10.59-1.59c6-1.47,9-2.2,12-3.19,12.2-3.94,12.44-6,21.18-8.42,8-2.26,14-3.92,18.29-1.14,5.18,3.33,2.84,9.63,7.94,14.34,4.62,4.28,12.11,4.24,18,3.42"/><path class="cls-4" d="M337.26,350.13a58.75,58.75,0,0,1-6.47-11.46,53,53,0,0,1-3.52-12.28c-.68-4.21-1.49-9.24.54-10.24,1.29-.64,2.76.83,6.23,2.3,3.14,1.33,5.7,1.66,10.82,2.31,11.1,1.4,12.7-.82,19.21.51,9.37,1.91,15.69,8.47,15.78,8.35S366.2,323.26,366,314.87c-.13-4.47,3.6-9,3.79-9.22,1.82-2.16,2.65-1.92,5.95-5.11,4-3.85,4.51-5.87,6.15-5.82,2,.06,3.15,3.17,4.94,6.58a55.48,55.48,0,0,0,9.59,13"/><path class="cls-4" d="M363.25,378.19a17.33,17.33,0,0,0,9.18,9.67c5.52,2.43,11.6,1.91,11.8,1s-7.34-2.33-14.43-8.93c-1.31-1.22-3-2.81-2.62-3.47,0,0,.65-1.05,20.46,6.2h0c-17.06-6.42-20.82-9.39-20.45-10.87.21-.85,1.87-1.54,2.88-1.78,1.34-.32,2.7-.12,5.56,1a57.92,57.92,0,0,1,5.45,2.5c6,2.95,7,2.29,8.13,3.72,3,3.68-1.31,10.58-1,10.67s6-8.45,3.68-17.61c-.72-2.83-2.13-5.44-3-5.32-1.21.17-.34,5.26-2.76,6.56-2,1.05-5.25-.82-8.13-3"/><path class="cls-4" d="M510.11,386.52a135.55,135.55,0,0,1-4.09-28.6c-.61-18.5,3.24-21.07,4.82-21.76.81-.36.88-.14,6.42,0,9.72.23,10.37-.43,12.84.5,4.64,1.75,3.73,4.59,8.09,6s5.87-1.42,11.71-.44c5.37.9,6.21,3.65,10.17,3a10.51,10.51,0,0,0,6.42-4,10.85,10.85,0,0,0,1.61-4.56c.74-4.12,1.53-8.49-.55-10.59-1.9-1.92-5.29-1-15.51,1-17.13,3.26-19.53,2.87-20.87,1.51-2.48-2.53-1.14-8.33,1.61-11.64,1.49-1.79,2.42-1.67,7.49-4.55,8.12-4.61,8.3-6.37,12.31-7.09.93-.17,6.5-1.17,10.45,2.06,3.6,2.94,3.75,7.67,3.82,10.13a18.15,18.15,0,0,1-1.07,6.65"/><ellipse class="cls-6" cx="518.77" cy="319.34" rx="12.92" ry="7.38"/><path class="cls-4" d="M524.36,312.69c.73-1.79,5.65-13.35,15.43-16.69a44.26,44.26,0,0,1,8.75-1.66c4.93-.52,7.4-.78,9.25.47,4,2.72,2.35,10.21,2.2,10.87"/><path class="cls-4" d="M513,312.74a76.18,76.18,0,0,1-6-14.85c-2.36-8.19-3.68-13.07-.89-16.55s8-3.62,12.25-3.78c3.05-.11,10.31-.38,14,4,1.34,1.61,1.73,3.36,2.5,6.85a38.42,38.42,0,0,1,.87,9.62"/><path class="cls-4" d="M506,316.34c-4.43-2.6-14.6-9.14-18.9-18.35-1.45-3.12-1.72-5.45-1.11-7.6a9.76,9.76,0,0,1,7.31-6.82c4.86-.88,10.55,2.66,12.08,8.73"/><path class="cls-4" d="M504.79,315.59a47.18,47.18,0,0,1-13.36-9.46,78.85,78.85,0,0,0-6.82-6.63c-4.18-3.54-6.31-5.31-8.48-5.06-4.1.47-7.89,6.74-6.46,11.51.84,2.8,3.26,4.35,6.09,6.1,4.55,2.83,8.58,3.68,13.09,4.71,4.1.95,10,2.39,17.42,4.42"/><path class="cls-4" d="M516.69,328.1c0,3.26,1.24,4.68,1.84,5.23,3.22,2.93,11,1.92,18.56-3.89"/><path class="cls-4" d="M488.85,316.76c-.19,2.68,0,6.4,2.58,8.72,3,2.68,6.77,1.41,12.24,3.37a22.75,22.75,0,0,1,9.91,7.18"/><path class="cls-4" d="M509.9,385.68a58.51,58.51,0,0,1,4.11-6.21c2.92-3.86,4.18-4.53,5.13-6.87,1.11-2.71.28-4,.09-9-.29-7.48,1.21-12.92,1.51-12.91s-.8,7.06,1.41,7.88,6.26-5.7,8-4.86c.9.44.85,2.74,0,4.52-1.92,4-8.1,5.6-8.32,5.19s7.46-7,14.52-5.69c2.47.45,6.14,2.1,7.08,5,1.59,4.94-5.91,9.42-3.9,13.74,1.13,2.4,4.33,2.89,4.08,4.52-.23,1.46-2.82,1.28-4.08,3.18-2,3.09,2.16,7.56.89,8.71s-6.91-1.82-11.69-6c-6.21-5.48-10.9-13.08-9.56-14.24,1.91-1.63,15.38,10.19,16.12,9.38.3-.33-1.64-2.64-4.08-4.52a27,27,0,0,0-9.56-4.52c0-.08,15,5,15.58,3.85.31-.64-3.5-3.44-8-5-4.09-1.46-7.44-1.44-7.43-2s2.27-.6,6.2-1.68c2.73-.75,6.22-1.71,6.19-2.51,0-.62-2.18-1.44-12.39-2.18"/><path class="cls-4" d="M436.3,329.34c6.45-4.86,5.75-12.95,7.95-12.89,1.54,0,3.52,4.05,2.56,7.25s-4.18,4.24-3.69,5.37c.35.82,2.18.52,5.39.81,5.5.49,8.84,2.14,9.09,1.61.34-.71-6.25-3-6-5.37.34-2.76,10.07-3.68,9.94-4.57-.1-.69-6,.05-13.07-2.42-4.1-1.43-4.24-2.44-4.26-2.68-.09-1.63,3.71-3.67,7.39-4,6.59-.64,10.6,4.5,12.5,3.22,2.92-2-4.14-14.84-3.13-15.31.79-.37,7.42,6.49,7.95,15.58.21,3.5-.55,6.29-2,11.55-2.23,8.18-3.85,8.88-4.26,12.36-.89,7.35,5.53,11.08,12.21,20.95,9.89,14.62,10.78,28.5,11.1,28.42s-.43-10.95-7.4-22.24c-6-9.68-11.06-10.75-14.77-20.82-1.72-4.68-2.48-9.5-4.27-9.53s-1.69,4.53-6,8.32-9.58,4.12-11.93,4.3c-4.05.31-9.19-.32-9.38-1.61,0-.22,0-1,4.83-2.95,7.91-3.23,14-3.68,13.92-4.3-.05-1-14.8-.36-15.05-2.15-.13-.93,3.63-2.38,7.1-3a28.47,28.47,0,0,1,12.08.86,63,63,0,0,1-8.11-1.93c-5.38-1.75-8.14-3.84-9.08-3s1.65,3.83.56,5.11c-1.52,1.78-9.39-.78-9.37-3C429.22,331.93,432.66,332.09,436.3,329.34Z"/><path class="cls-4" d="M501.3,387.87a100.93,100.93,0,0,0-13.55-32.22,105.78,105.78,0,0,0-21.88-24.55"/><path class="cls-4" d="M448.77,313c-3.14-6.85-10.51-21.37-23.4-34.29-7.85-7.87-11.77-11.81-17.33-14.33-4.87-2.2-8.87-2.83-10.4-6.3-1.12-2.53-.17-4.89,2.5-12.31,1.53-4.25,2.91-8.55,4.51-12.78,4.06-10.77,2.41-20.8,0-35.51-1.83-11.13-2.84-16.76-7.51-20.36-2.74-2.11-5.16-2.45-9.72-6.42-4.39-3.81-5.95-6.81-7.8-6.37-1.06.25-1.78,1.52-3,7.1-2.2,10-1.34,12.37-3,13.26-3.36,1.8-8.21-7.24-19-8.52-5.35-.63-12.24.63-14,4.26-1.36,2.77,1.31,4.8,0,8.05-1.84,4.57-8.4,3.74-10,6.75-4.06,7.61,28.27,30.95,28.53,30.66a76.06,76.06,0,0,1-11.73-10.34c-9.56-10.24-10.89-16.33-16.62-16.92-4.06-.43-8.12,2.14-10.19,4.53-3.75,4.32-1,8.06-5,13.26-2.82,3.61-5.07,3-7,6.62-1.85,3.5-1.35,7-1,9.47s1.18,8.34,5.51,11.84,9.3,1.9,18.52,2.37c15.1.77,25.07,6.49,25,6.63s-22.88-9.73-46.06-4.74c-13,2.81-15.45,8-16,9.47a11.23,11.23,0,0,0,.05,7.55c1.52,4.17,4.7,4.93,13,10.92,8.11,5.88,7.54,6.95,11,8.05,8,2.53,15.33-1.82,16-.47,1,2-15.77,9.37-14.51,13.73.78,2.71,8.4,3.76,14.51,2.37,5.47-1.25,9-4.28,13.52-8.53,10.28-9.74,12.85-14,17.52-18.46,13.06-12.56,31.38-16.33,32-15.16.56,1-9.93,8.76-23,12.79-13.69,4.21-28.48,3.8-29,1.42-1.82-7.87,30.21-14.82,22.52-11.36h0c-24.75,4.84-30.5,5.82-30.53,5.68-.07-.3,25.2-3.5,26-10.89.62-5.55-12.81-10.77-12-12.31,1.1-2.15,26.46,8.92,28.54,5.68,2.19-3.43-22.64-21.09-21-23.2,1.07-1.4,12.79,5,14,3.31.81-1.14-4.14-4.09-4.51-9.47-.2-3,1-6.71,3-7.1,2.9-.58,6.7,6.2,8,8.52,3.19,5.69,4,10.5,4.5,10.42.91-.16-3.76-17.54.5-19.42,2-.87,5.8,1.72,7.51,4.74,2.75,4.83.24,10.84.5,10.89s2-14.21,6-14.68c3.2-.38,9.43,8.06,7.52,14.78-2.36,8.31-15.29,7.47-18.53,16.95-2,5.7,1.68,9.07-1,12.78C383.44,262,375,261.86,368.1,261"/><path class="cls-4" d="M373.61,184.71a65.5,65.5,0,0,1,6.51,14.68,63.93,63.93,0,0,1,2.72,17.06"/><text class="cls-7" transform="translate(634.81 322.42)">Jasmin Taylor</text><text class="cls-8" transform="translate(1311.05 418.38)">Portfolio</text></svg>
