<svg id="Layer_1" data-name="Layer 1" xmlns="http://www.w3.org/2000/svg" viewBox="0 0 1920 1080"><defs><style>.cls-1{fill:#c9d0ff;opacity:0.62;}.cls-2{fill:#f6c9ff;opacity:0.54;}.cls-3{fill:#fffdb3;opacity:0.66;}.cls-4,.cls-5{fill:none;}.cls-4,.cls-6{stroke:#000;}.cls-4,.cls-5,.cls-6{stroke-miterlimit:10;stroke-width:2.5px;opacity:0.9;}.cls-5{stroke:#0c0c0c;}</style></defs><title>Artboard 1</title><rect class="cls-1" x="629.03" y="208.36" width="1199.18" height="488.51"/><rect class="cls-2" x="239.54" y="397.51" width="1056.3" height="581.21"/><rect class="cls-3" x="882.45" y="615.02" width="993.14" height="451.14"/><path class="cls-4" d="M334.12,507.82s4.46,10.32,18.84,23.45,6,41.73,6,41.73-11.9,17.82-24.79,20.63-28.26-.94-40.65-9.38-24.79-18.75-42.14-19.69-32.22-.47-47.58,9.84-35.2,46-35.2,46l-31.23,75.49L121,743.67l-74.49,202S41.78,960.5,36.3,977.53s-8.62,26.66,13.31,36.29"/><path class="cls-4" d="M246.38,711.38s-37.86,100.06-44.22,113.78S143.43,950,146.61,962.36c0,0-3.89,5.69-17-1.68s122.41,42.5,180.08,47.19"/><path class="cls-5" d="M202.16,825.16s0,159.65,8.84,160"/><path class="cls-4" d="M327.72,594.47s.79,44.42-5.12,59.43-29.16,79.27-29.16,79.27-17.72,58-24.74,70.19-21.41,36.67-28.06,44.7-37.78,40.17-37.78,40.17"/><path class="cls-4" d="M334.12,593.63s1.13,29.22,0,43-12.65,45.81-12.65,45.81l-23,69.85s-10.84,28.2-6.78,48.71,13.55,52.54,19.65,64.72l40.11,80.14,32,64"/><path class="cls-4" d="M352.14,947.31c15.64-39.38,20.36-55,19.18-68"/><path class="cls-4" d="M527,649s1.36,12.93,34.17,23.28S630.86,700,630.86,700s14.36,1.94,21.19,26.51-6.83,45.9-6.83,45.9l-21.88,47.85-32.88,75.65s-5.4,12.28-18.39,33a390.15,390.15,0,0,0-22.56,42,65.53,65.53,0,0,1-18.45,25.21c-13.67,11.64-24.61,13.75-24.61,13.75s18.45-20.21,25.29-46.72,2-67.24,2-67.24l-9.57-69.18s-8.2-56.9-6.83-80.82-2.06-75,2.05-78.24Z"/><path class="cls-4" d="M506.45,1009.9c-25.71,13.14-22.45,16.22-48.82,14.54s-29.94-7.06-29.94-7.06-2.67,4.26-3.55-12.56,0-64.76,0-64.76,4.14-54.94,8.89-69.8,16.59-74,16.59-74,13.64-63.07,12.16-64.75S466,668.7,465.09,641,469,601.67,469,601.67l22.66-30.2,6.1-9.92s3.9,0,4.38,7.38,2.44.69-2.43,15.91-20,30.89-20,30.89"/><path class="cls-4" d="M527,649c6.12-48.75,18.33-77.54,21.62-88.7s-7.05-57.38-7.05-57.38L527,465.55s-6.74-28.44-20.51-34.22-12.37,13.33-12.37,13.33l12.37,32s19.11,40,23.34,58.65,8.93,24.89,5.64,36.44"/><path class="cls-4" d="M499.37,458.35c-10,1.59-12,8.56-12,8.56s-1.34,7.61,3.35,17.76,9.05,18.07,12.74,29.17,3,26.95,3,26.95a22.37,22.37,0,0,1,2.58,2.06,22.78,22.78,0,0,1,6.71,13.95"/><path class="cls-4" d="M506.45,540.79c-1.45,1-9.91,7.25-9.6,16.22a14.5,14.5,0,0,0,.92,4.54"/><path class="cls-4" d="M504.71,430.72c2.49,10.63-.7,3.3,2.49,10.63s17.94,20.85,17.94,20.85"/><path class="cls-4" d="M496.31,496.39l1.08,56.25"/><path class="cls-4" d="M488.35,478.06c-.34,7.46-2.33,25.28-16.3,40.55-16,17.53-38,20.93-49.49,22.72a114.27,114.27,0,0,1-32.07,0c-7.9-1.09-17.82-2.46-28.85-8.08a71.78,71.78,0,0,1-26.48-23.39"/><path class="cls-4" d="M382.71,489.36a85.74,85.74,0,0,0,31.41,1.78c6.56-.87,14-1.84,21.74-6.37,12.48-7.29,24.38-21.26,19.43-24.06L436.15,449.9c-1.26-.56-18.38-7.8-34.29,1.62a34.25,34.25,0,0,0-15.72,21.62Q384.43,481.26,382.71,489.36Z"/><path class="cls-4" d="M385.33,490l11.66-14c4.27-7.62,9.12-10.89,12.94-12.44,5.41-2.19,14.44-3.25,14.44-3.25h0a45.39,45.39,0,0,1,6.61-.15,46,46,0,0,1,12.18,2.27l.41.14L456,464.88"/><path class="cls-4" d="M443.93,463.1a47.69,47.69,0,0,1-10.43,7.75c-5.3,2.92-9.62,4-16.95,5.82-8.1,2-11.95,2-14.27,1.92a38.28,38.28,0,0,1-6.45-.89"/><path class="cls-4" d="M387.37,423.79a27.31,27.31,0,0,0-1.95,8.9c-.17,3.63-.3,6.35,1.65,7.95,2.42,2,6.37.87,7.11.65"/><path class="cls-4" d="M421.81,419.4a16.36,16.36,0,0,1,4.05,4.14c1.38,2,2.89,4.27,2,6.38s-3.67,2.86-4.38,3"/><path class="cls-4" d="M413.76,425.89c-1.71,2.07-1.27,3-1.18,3.2.66,1.25,3.83,1.43,7.95.14"/><path class="cls-4" d="M401.09,429.32c.6,2.57-.23,3.25-.39,3.37-1.16.86-4.1-.27-7.23-3.11"/><path class="cls-4" d="M494,458.35l.65-12.13h0v0s-.68,13.56-.69,13.56S494,459.16,494,458.35Z"/><path class="cls-4" d="M498.05,431.39q.38-7.17.76-14.35"/><path class="cls-4" d="M554.16,368.1c-3.25-2.29-7.81-4.7-11.94-3.44-2.45.75-2.79,2.18-7.26,6.87-4.06,4.26-9.27,8.84-11.82,11.09-4,3.48-5.69,4.72-5.79,7-.11,2.45,1.77,3.12,2.29,6.49.69,4.52-2.06,7.48-.94,8.27s3.87-1.14,5.6-2.67c3.29-2.91,2.53-4.72,5.57-7.51,2.18-2,2.79-1.26,6.73-4.07s4.6-4.42,5.52-4.09c1.64.59,1.78,6.67-1.06,11.45a19.9,19.9,0,0,1-5.39,5.54c-4.94,3.9-6.67,3-9.84,6-4.59,4.32-2.91,7.32-6.86,9.65-3,1.78-6.49,1.49-12.15,1a46.35,46.35,0,0,1-8.62-1.51c-8.33-2-19.12-6-23.07-4.55a7,7,0,0,0-1.51.8,7.56,7.56,0,0,0-2.56,3.95c-1.4,3.52-8.41,5.92-13.86,4.83-2.74-.54-4.49-1.91-8-4.65-3.26-2.54-5.31-4.15-6.26-7.06-.74-2.28-1-6.12,1.21-8.39s5.23-1.52,5.45-2.67c.29-1.5-4.88-2.39-9.28-6.68-.47-.46-6.25-6.2-4.39-9.62,1.37-2.51,6.28-2.73,9.15-2.29s3.26,1.46,7.8,3.18c4.82,1.82,5,.91,8.75,2.42,5.74,2.32,5.41,4.55,10.23,6,3.78,1.12,4.13-.22,9.15,1,2.77.68,7.74,1.91,8.75,5.22.06.21.75,2.58-.54,3.69-2.37,2-8.65-2.57-21.67-5.73-4.17-1-6-1.14-6.73-.26-1.36,1.68,1.86,6.15,4.31,9.55a57.34,57.34,0,0,0,7.46,8.46"/><ellipse class="cls-6" cx="504.71" cy="398.42" rx="15.11" ry="10.14"/><path class="cls-4" d="M452,363c.52-5.76-2-7.82-.22-11.45,1.17-2.36,3.92-4.86,6.31-4.51,2.14.32,3.92,4,7.41,11.24,1.74,3.62,2.09,4.75,3.63,6.4,2.25,2.4,4.06,2.74,6.94,4.6,3.64,2.36,5.63,5,8,8.11,5.31,7,3.78,9.56,8,13.35,4.86,4.34,10.35,4.07,10.24,4.71-.24,1.36-25.11,2.41-43.43-10.21-3.54-2.44-9.7-6.79-9.76-12.55C449.1,369.05,451.5,368.32,452,363Z"/><path class="cls-4" d="M507.72,387.3a52.36,52.36,0,0,1,.33-8,30.56,30.56,0,0,1,1.32-6.87c1.27-3.55,2.82-4.63,4.24-7.05,3.95-6.71,1.53-14.61,1.21-15.59s-3.17-9.83-10.23-11.7c-3-.79-3.59.45-10.4,1.25-10,1.17-12.52-1.08-16.34,1.4s-4.76,7-5.28,9.52c-2.23,11,5.7,20.26,7.49,22.25"/><path class="cls-4" d="M515.72,358.85c8-.84,12.93-3.38,15.93-5.58,2.51-1.84,5.41-4.71,8.09-3.9a5.59,5.59,0,0,1,3,2.81c1,2-.25,2.88.5,4.68,1,2.52,4.62,3.68,6.76,4.37,2.86.92,3.7.47,4.46,1.4,1.63,2-1.35,5.08.17,7,1.24,1.61,3.65,0,6.27,1.72s1.2,4.26,4.12,7.49c2.3,2.53,4.18,2.1,4.62,3.75.17.61.37,2.37-7.42,8.89-4.39,3.68-6.58,5.51-9.08,6.56a25.13,25.13,0,0,1-13.55,1.48"/><path class="cls-4" d="M517.75,419a19.11,19.11,0,0,0,10.44,6.59c4.4.89,6.36-.7,14.85-2.35a122.77,122.77,0,0,1,19.48-2c9.26-.18,13.22,1,14.69-1.24s-1.9-4.65-1.32-10.62c.31-3.23,1.39-3.42,2.6-8.11,1.1-4.22,2.42-9.33.37-11.56-2.52-2.73-10.25-1.33-18.77,3.31"/><path class="cls-4" d="M409.36,328.75a86.45,86.45,0,0,0,2.33-18,64.44,64.44,0,0,0-2.33-19.56c-.9-3.18-1.71-5.38-5.56-14.14-.95-2.15-10.58-24-11.54-23.64s6.39,27,2.09,29.58a16,16,0,0,0-4,3.56,4.28,4.28,0,0,0-.66,1.17c-1.81,4.7,4.58,8.35,5,16.4.13,2.75-.55,3.54-1.3,7.26-2.63,13.08,3,17.63,2.67,35.64-.08,5.16-.62,9.69,0,9.78,1.32.2.84-20.67,13.34-28.07,7-4.13,10.31.11,22.68-3.79s18.18-11.78,21-9.78c1.62,1.15.81,4.51,0,7.89-.76,3.15-3,10.49-10.67,18a54.56,54.56,0,0,1-16.68,10.72A67.2,67.2,0,0,1,396,356.82a57,57,0,0,0,15.67,18.3,61.38,61.38,0,0,0,23.91,11"/><path class="cls-4" d="M392.26,253.43c-2.93,2-7.32,5.06-12.58,8.89-6.76,4.91-10.13,7.37-11.27,8.61-7.1,7.75-8.59,19.24-6.74,28,2,9.58,8.27,16.57,8,16.69s-3.62-8.95-12.42-14.13c-5.65-3.33-11.25-3.72-18.84-4.24-5.6-.38-12.78-.8-21,2.19-3.45,1.26-7.06,2.58-10.34,5.84-3.1,3.09-2.83,4.87-7.26,14.32-3.88,8.29-4.68,8.19-6,12.56-1.74,5.68-3.25,10.58-.93,14.75,3.63,6.51,14.39,7.21,20.23,7.59,5.6.37,10.14-.43,19-2,14.06-2.56,21.21-5.18,21.62-4.24s-5.21,4.84-12.35,7.16c-8.88,2.88-13.1,1-28.41,2.48-14.31,1.41-15.92,3.61-16.37,4.82-.69,1.86.68,3.28,4.48,10.08,5.49,9.84,4.59,10.41,6.48,12.12,6.27,5.67,20.51,3.33,30.27-1.9,11.14-6,12-13.31,23.47-25.85,11.12-12.11,24.38-21.22,25.49-20.2.86.78-3.91,9-11.93,15.23s-14.82,7.17-16.47,13.15c-.14.48-1.63,5.9.77,7.55a2.69,2.69,0,0,0,.86.37c4.46,1.14,11.75-5,11.75-5,11.31-9.53,15.69-16.08,17.25-15.34s-.31,7.06-2.31,11.44-4.64,7.41-8,11.2c-2.92,3.31-5,5.63-8.5,8-3.11,2.12-6.15,4.2-10.56,4.63-4,.39-10.2-.45-11.33-3.41s3-8.2,10.82-11.93"/><path class="cls-4" d="M301.09,372.73a60.2,60.2,0,0,0-12.47-.63c-6.65.35-7.67,1.51-8,2-2,2.83,1.45,8.15,2.61,9.94,3.86,6,8.13,6.94,8,10.47-.1,2.4-2.1,2.54-2.58,5.6a9.46,9.46,0,0,0,4.12,9c.94.6,3,1.67,9.33.87,4.46-.57,11.46-1.46,18.48-6.47,7.24-5.17,10-11.49,11.84-10.72,1.62.66-.57,5.22,2.32,8.28,2.09,2.22,5.58,2.33,9,2.44s6-.4,11.33-1.71c6.41-1.57,9.62-2.35,12.87-3.4,13.06-4.22,13.31-6.39,22.66-9,8.6-2.42,14.93-4.2,19.57-1.22,5.54,3.56,3,10.3,8.49,15.34,4.95,4.58,13,4.53,19.31,3.65"/><path class="cls-4" d="M318.68,299a62.76,62.76,0,0,1-6.92-12.26A56.88,56.88,0,0,1,308,273.59c-.72-4.5-1.59-9.88.58-10.95,1.38-.68,2.95.89,6.66,2.46,3.36,1.43,6.1,1.77,11.58,2.46,11.88,1.51,13.59-.87,20.56.55,10,2.05,16.79,9.07,16.88,8.94s-14.6-6.8-14.85-15.78c-.14-4.79,3.85-9.63,4.05-9.86,1.95-2.32,2.84-2.06,6.37-5.48,4.26-4.12,4.82-6.28,6.58-6.22,2.16.07,3.37,3.39,5.29,7a59.7,59.7,0,0,0,10.25,13.93"/><path class="cls-4" d="M346.49,329a18.52,18.52,0,0,0,9.82,10.35c5.91,2.61,12.41,2.05,12.63,1.07s-7.86-2.5-15.44-9.56c-1.4-1.31-3.24-3-2.8-3.72,0,0,.69-1.12,21.88,6.64h0c-18.24-6.87-22.28-10.05-21.88-11.63.23-.91,2-1.65,3.08-1.91,1.44-.34,2.9-.13,6,1.05a58,58,0,0,1,5.83,2.67c6.4,3.15,7.45,2.44,8.7,4,3.18,3.93-1.4,11.32-1.12,11.41s6.41-9,3.92-18.84c-.76-3-2.27-5.82-3.22-5.69-1.29.18-.36,5.63-3,7-2.09,1.12-5.61-.88-8.7-3.19"/><path class="cls-4" d="M503.62,337.93a145,145,0,0,1-4.37-30.6c-.66-19.79,3.46-22.54,5.15-23.29.87-.38,1-.14,6.87,0,10.4.25,11.09-.46,13.74.54,5,1.88,4,4.91,8.65,6.43s6.28-1.52,12.54-.47c5.74,1,6.64,3.91,10.88,3.25a11.27,11.27,0,0,0,6.87-4.33,11.65,11.65,0,0,0,1.72-4.88c.79-4.41,1.63-9.09-.59-11.32-2-2.06-5.66-1.05-16.59,1-18.33,3.5-20.9,3.08-22.33,1.63-2.66-2.71-1.22-8.92,1.72-12.46,1.6-1.92,2.59-1.79,8-4.87,8.69-4.93,8.88-6.81,13.17-7.58,1-.18,7-1.25,11.19,2.2,3.85,3.15,4,8.2,4.08,10.84a19.49,19.49,0,0,1-1.14,7.11"/><ellipse class="cls-6" cx="512.89" cy="266.05" rx="13.82" ry="7.9"/><path class="cls-4" d="M518.87,258.94c.78-1.92,6-14.29,16.51-17.87a48.2,48.2,0,0,1,9.36-1.77c5.28-.56,7.92-.84,9.89.51,4.26,2.9,2.52,10.92,2.36,11.63"/><path class="cls-4" d="M506.7,259a82.07,82.07,0,0,1-6.46-15.89c-2.52-8.77-3.94-14-.95-17.71s8.59-3.87,13.1-4c3.27-.12,11-.41,15,4.3,1.44,1.72,1.85,3.59,2.68,7.33a41.41,41.41,0,0,1,.93,10.29"/><path class="cls-4" d="M499.26,262.84c-4.75-2.78-15.62-9.78-20.22-19.64-1.56-3.34-1.85-5.82-1.2-8.12a10.45,10.45,0,0,1,7.83-7.3c5.2-.95,11.28,2.84,12.93,9.33"/><path class="cls-4" d="M497.93,262a50.29,50.29,0,0,1-14.3-10.13,84.61,84.61,0,0,0-7.3-7.09c-4.46-3.79-6.74-5.67-9.07-5.41-4.38.5-8.44,7.21-6.91,12.31.9,3,3.49,4.65,6.51,6.53,4.88,3,9.19,3.93,14,5,4.4,1,10.76,2.55,18.65,4.73"/><path class="cls-4" d="M510.66,275.42c0,3.49,1.33,5,2,5.6,3.44,3.14,11.8,2.05,19.86-4.17"/><path class="cls-4" d="M480.87,263.29c-.2,2.86,0,6.85,2.76,9.33,3.17,2.86,7.25,1.51,13.1,3.6a24.54,24.54,0,0,1,10.61,7.69"/><path class="cls-4" d="M503.4,337a60.19,60.19,0,0,1,4.39-6.64c3.13-4.13,4.48-4.85,5.49-7.35,1.19-2.91.3-4.25.09-9.67-.3-8,1.3-13.82,1.62-13.8s-.85,7.55,1.52,8.42,6.69-6.1,8.52-5.2c1,.47.91,2.94,0,4.84-2.06,4.29-8.66,6-8.9,5.55s8-7.48,15.53-6.09c2.65.49,6.57,2.25,7.58,5.38,1.7,5.28-6.33,10.07-4.17,14.69,1.2,2.57,4.63,3.09,4.36,4.84-.24,1.56-3,1.37-4.36,3.4-2.17,3.31,2.31,8.09.95,9.32s-7.4-1.94-12.51-6.45c-6.64-5.87-11.66-14-10.23-15.23,2-1.75,16.45,10.9,17.24,10,.33-.35-1.74-2.82-4.35-4.83a28.74,28.74,0,0,0-10.23-4.84c0-.09,16,5.38,16.67,4.12.33-.69-3.75-3.68-8.53-5.38-4.38-1.55-8-1.53-8-2.15s2.43-.64,6.63-1.79c2.92-.8,6.66-1.83,6.63-2.69,0-.66-2.33-1.54-13.26-2.33"/><path class="cls-4" d="M424.65,276.75c6.89-5.2,6.15-13.86,8.51-13.8,1.65.05,3.76,4.35,2.73,7.77-1,3.26-4.47,4.53-3.95,5.74.38.88,2.34.56,5.78.87,5.87.52,9.45,2.28,9.72,1.72.37-.77-6.69-3.25-6.38-5.75.36-2.94,10.77-3.93,10.64-4.88-.11-.75-6.46.05-14-2.59-4.39-1.54-4.55-2.62-4.56-2.88-.11-1.74,4-3.92,7.9-4.31,7.05-.68,11.34,4.82,13.37,3.45,3.13-2.1-4.42-15.87-3.34-16.38.84-.4,7.94,6.94,8.51,16.67.21,3.74-.6,6.73-2.13,12.36-2.38,8.75-4.11,9.5-4.56,13.22-.94,7.87,5.92,11.86,13.07,22.42,10.58,15.64,11.53,30.49,11.87,30.4s-.45-11.71-7.91-23.79c-6.4-10.36-11.84-11.51-15.8-22.27-1.85-5-2.66-10.17-4.57-10.21s-1.81,4.85-6.38,8.91-10.25,4.41-12.77,4.6c-4.32.33-9.83-.34-10-1.72,0-.24,0-1.06,5.17-3.16,8.47-3.46,14.92-3.93,14.89-4.6-.05-1.05-15.84-.38-16.1-2.3-.14-1,3.88-2.55,7.59-3.16a30.21,30.21,0,0,1,12.93.91,69.23,69.23,0,0,1-8.67-2.06c-5.76-1.87-8.71-4.11-9.73-3.17s1.77,4.1.61,5.46c-1.63,1.91-10.05-.82-10-3.16C417.07,279.52,420.75,279.69,424.65,276.75Z"/><path class="cls-4" d="M494.19,339.38a108.24,108.24,0,0,0-14.49-34.49,113.43,113.43,0,0,0-23.41-26.26"/><path class="cls-4" d="M438,259.29c-3.36-7.33-11.24-22.86-25-36.69-8.4-8.42-12.6-12.64-18.55-15.33-5.21-2.36-9.49-3-11.13-6.74-1.19-2.71-.18-5.23,2.68-13.17,1.64-4.55,3.11-9.15,4.82-13.68,4.35-11.52,2.59-22.26,0-38-1.95-11.9-3-17.93-8-21.78-2.93-2.26-5.52-2.62-10.4-6.86-4.7-4.09-6.37-7.29-8.35-6.82-1.13.27-1.9,1.63-3.21,7.6-2.36,10.67-1.44,13.23-3.22,14.18-3.59,1.93-8.78-7.75-20.35-9.11-5.72-.68-13.1.67-15,4.55-1.45,3,1.4,5.15,0,8.62-2,4.88-9,4-10.71,7.22-4.35,8.14,30.25,33.11,30.53,32.8A81.14,81.14,0,0,1,329.49,155c-10.24-11-11.66-17.47-17.79-18.11-4.34-.45-8.69,2.29-10.9,4.85-4,4.63-1,8.63-5.36,14.19-3,3.87-5.42,3.18-7.5,7.09-2,3.74-1.44,7.5-1.07,10.13.35,2.45,1.27,8.92,5.89,12.67s9.95,2,19.82,2.53c16.16.82,26.83,6.95,26.78,7.09s-24.47-10.41-49.28-5.06c-13.93,3-16.53,8.57-17.14,10.13a12.11,12.11,0,0,0,.05,8.08c1.63,4.46,5,5.26,13.88,11.68,8.68,6.29,8.07,7.44,11.78,8.61,8.57,2.71,16.4-1.94,17.14-.51,1.09,2.12-16.88,10-15.53,14.7.84,2.9,9,4,15.53,2.53,5.85-1.33,9.67-4.57,14.47-9.12,11-10.42,13.75-15,18.74-19.76,14-13.43,33.58-17.47,34.28-16.21.61,1.07-10.62,9.37-24.63,13.68-14.65,4.5-30.48,4.07-31.07,1.52-1.94-8.42,32.33-15.85,24.1-12.16h0C325.2,208.76,319,209.8,319,209.65c-.08-.32,27-3.74,27.85-11.65.67-5.94-13.7-11.52-12.85-13.17,1.17-2.3,28.3,9.55,30.53,6.07,2.34-3.66-24.23-22.56-22.5-24.82,1.14-1.49,13.69,5.4,15,3.55.86-1.22-4.43-4.38-4.82-10.14-.22-3.24,1.12-7.18,3.21-7.6,3.11-.62,7.18,6.64,8.57,9.12,3.41,6.09,4.32,11.24,4.82,11.15,1-.17-4-18.77.54-20.77,2.14-.94,6.19,1.83,8,5.06,2.94,5.17.26,11.6.54,11.66s2.18-15.2,6.43-15.71c3.42-.41,10.09,8.62,8,15.82-2.53,8.89-16.36,8-19.83,18.13-2.09,6.1,1.8,9.71-1.07,13.67-3.4,4.71-12.42,4.53-19.82,3.55"/><path class="cls-4" d="M357.57,122a69.85,69.85,0,0,1,7,15.71A68.51,68.51,0,0,1,367.45,156"/></svg>
