<svg id="Layer_1" data-name="Layer 1" xmlns="http://www.w3.org/2000/svg" viewBox="0 0 1920 1080"><defs><style>.cls-1,.cls-21{fill:#f67790;}.cls-2{fill:#d0f3fd;}.cls-3{fill:#9e6dd2;}.cls-32,.cls-4{fill:#fff;}.cls-17,.cls-24,.cls-26,.cls-29,.cls-31,.cls-33,.cls-5,.cls-9{fill:none;}.cls-5{stroke:#e588ff;}.cls-15,.cls-17,.cls-19,.cls-21,.cls-24,.cls-26,.cls-29,.cls-31,.cls-32,.cls-33,.cls-5,.cls-9{stroke-miterlimit:10;}.cls-19,.cls-21,.cls-24,.cls-26,.cls-29,.cls-31,.cls-5{stroke-width:5px;}.cls-6{fill:#fdc59a;}.cls-7{fill:#f4be10;}.cls-8{fill:#42210b;}.cls-17,.cls-9{stroke:#534741;}.cls-9{stroke-width:6px;}.cls-10{fill:red;}.cls-11{fill:#ff1d25;}.cls-12{fill:#ff7bac;}.cls-13,.cls-15{fill:#f49ab1;}.cls-14{fill:#29abe2;}.cls-15{stroke:#ff7bac;stroke-width:7px;}.cls-16{fill:#534741;}.cls-17,.cls-32{stroke-width:3px;}.cls-18{fill:#f3a9ab;}.cls-19,.cls-20{fill:#ff748b;}.cls-19{stroke:#df576c;}.cls-21{stroke:#f3a9ab;}.cls-22{fill:#f7cdc1;}.cls-23{fill:#e588ff;}.cls-24{stroke:#8908e8;}.cls-25{fill:#b41fe8;}.cls-26{stroke:#e400ff;}.cls-27{fill:#e400ff;}.cls-28{fill:#e77fff;}.cls-29{stroke:#b41fe8;}.cls-30{fill:#ff0;}.cls-31{stroke:#fcee21;}.cls-32,.cls-33{stroke:#fff;}.cls-33{stroke-width:15px;}</style></defs><title>startskærm</title><ellipse class="cls-1" cx="1851.58" cy="64.44" rx="18.43" ry="18.58"/><rect class="cls-2" y="-2" width="1920" height="1085"/><rect class="cls-3" x="909.3" y="404.78" width="179.35" height="262.69" rx="12" transform="translate(-90.05 220.84) rotate(-12.07)"/><path class="cls-4" d="M1038.24,612.29a48.93,48.93,0,0,1-11.42,15.11,33.13,33.13,0,0,1-15,7.42q-16,3.34-32.53-5.58t-27.77-29.55a163,163,0,0,1-16.35-45q-8.67-41.43,5.44-71.1T987.8,447q22.11-4.63,42.08,2.18l8.3,39.68q-19.62-9.74-33.89-6.75-18.49,3.87-24.35,21.3t-.24,44.24q5.2,24.89,14.47,38.28t19.9,11.17a8.8,8.8,0,0,0,7-6.69q1.61-5.56-.48-15.57l-2.34-11.16-14.51,3-6.74-32.2,55.61-11.62,20.13,96.22-21.43,4.48Z"/><rect class="cls-5" x="919.05" y="422.82" width="157.49" height="235.84" rx="12" transform="translate(-91.04 220.69) rotate(-12.07)"/><ellipse class="cls-6" cx="387.48" cy="534.93" rx="169.08" ry="158.21"/><rect class="cls-6" x="374.37" y="690.56" width="35.55" height="45.23"/><path class="cls-7" d="M544,475.11l24.14,16.41A243.28,243.28,0,0,1,600,548.74c17.3,44.58,6.77,58.63,22.09,97.08,5.39,13.51,27.88,69.92,78.08,83,28.13,7.33,61.46.14,63.69-9.85,1.83-8.14-18.09-13-33.9-29.08-27-27.37-13.87-58.63-20-109.74-1.93-16-12.85-106.53-76-138.35-7.85-3.95-46-21.9-70.89-5.16C546.32,447.92,544.37,468.69,544,475.11Z"/><path class="cls-7" d="M238,466.51l-24.14,16.42A243,243,0,0,0,182,540.14c-17.3,44.58-6.77,58.64-22.09,97.08-5.39,13.52-27.88,69.92-78.08,83-28.13,7.33-61.46.14-63.69-9.85-1.83-8.13,18.09-13,33.9-29.08,27-27.36,13.87-58.63,20-109.74,1.93-16,12.85-106.53,76-138.35,7.85-3.95,46-21.9,70.89-5.16C235.68,439.32,237.63,460.09,238,466.51Z"/><path class="cls-7" d="M242.66,438.2c-13,23.47-18,51.16-18,51.16-1.19,6.62-2.07,11.59-2.51,15.53a37,37,0,0,0,.16,9.41c2.49,18.25,162.82,15.47,162.82,15.47,115.69-2,158,6,169.08-19.77,7-16.24-2-37.54-11.74-54.17,0,0-3.56-10.09-7.05-17.63C521.8,408.77,461.28,374.37,389,375,326.21,375.57,262.49,402.57,242.66,438.2Z"/><ellipse class="cls-4" cx="335.03" cy="585.23" rx="41.49" ry="50.3"/><ellipse class="cls-4" cx="459.49" cy="586.09" rx="41.49" ry="51.16"/><ellipse class="cls-8" cx="337.38" cy="602.86" rx="29.75" ry="32.67"/><ellipse class="cls-4" cx="339.73" cy="612.32" rx="14.87" ry="16.34"/><ellipse class="cls-8" cx="459.49" cy="604.58" rx="29.75" ry="32.67"/><ellipse class="cls-4" cx="459.49" cy="615.76" rx="14.87" ry="16.34"/><path class="cls-9" d="M365.56,651c.67,1,12.37,17.43,31.31,15.47,16.13-1.66,24.72-15.35,25.83-17.19"/><path class="cls-6" d="M468,914.59,312.84,919,345,735.79h86.22Z"/><rect class="cls-6" x="352.49" y="922.01" width="22.56" height="81.94"/><rect class="cls-6" x="407.19" y="918.92" width="22.56" height="87.35"/><path class="cls-6" d="M286.18,848.47l-19.83-13,64.95-99.65h30.08Z"/><path class="cls-6" d="M496.75,848.47l19.83-13-65-99.65H421.55Z"/><rect class="cls-10" x="406.5" y="997.77" width="41.7" height="16.23" rx="8.12"/><rect class="cls-11" x="333.35" y="997.77" width="41.7" height="16.23" rx="8.12"/><path class="cls-6" d="M264.29,865.49l-3.37-2.62a13.32,13.32,0,0,1-3.4-5.91,14.92,14.92,0,0,1-.06-7.72,34.86,34.86,0,0,1,4.79-9.2,31,31,0,0,1,7.06-7,8.59,8.59,0,0,1,5.25-3.73,7.83,7.83,0,0,1,6.16,1.39l3.37,2.61a29.47,29.47,0,0,1,3.4,5.91c4.58,10.65,1.89,21.49.74,25.35-.48.22-2.37,1-3.42,0-.7-.66-.7-1.8-.68-3.83,0-3.57.8-5.08,0-6.13a2.35,2.35,0,0,0-2.05-.77,24.54,24.54,0,0,1-6.84,7.67A21.16,21.16,0,0,1,264.29,865.49Z"/><path class="cls-6" d="M517.94,857.82l3.37-2.61a13.44,13.44,0,0,0,3.4-5.92,14.87,14.87,0,0,0,.06-7.71,34.86,34.86,0,0,0-4.79-9.2,31,31,0,0,0-7.06-7,8.59,8.59,0,0,0-5.25-3.74,7.87,7.87,0,0,0-6.16,1.39l-3.37,2.61a28.82,28.82,0,0,0-3.4,5.92c-4.58,10.64-1.89,21.48-.74,25.35.48.21,2.37,1,3.42,0,.69-.66.7-1.8.68-3.84,0-3.56-.8-5.08,0-6.13a2.32,2.32,0,0,1,2-.76,24.42,24.42,0,0,0,6.84,7.66A21.16,21.16,0,0,0,517.94,857.82Z"/><rect class="cls-12" x="353.86" y="735.79" width="15.04" height="55.96" rx="7.52"/><rect class="cls-12" x="411.29" y="735.79" width="15.04" height="55.96" rx="7.52"/><path class="cls-13" d="M468,914.4,312.84,919q12-68.22,23.93-136.45l103.92-.77Q454.36,848.1,468,914.4Z"/><polygon class="cls-14" points="232.11 486.21 224.23 483.74 233.9 446.54 241.78 449 232.11 486.21"/><polygon class="cls-14" points="553.02 486.21 544.85 486.85 542.35 448.26 550.52 447.62 553.02 486.21"/><rect class="cls-10" x="407.29" y="989.72" width="30.29" height="16.47" rx="8.24"/><rect class="cls-10" x="346.23" y="989.72" width="30.29" height="16.47" rx="8.24"/><rect class="cls-15" x="354.6" y="805.77" width="72.8" height="52.45"/><ellipse class="cls-1" cx="580.2" cy="691.35" rx="47.78" ry="52.88" transform="translate(-247.77 332.09) rotate(-26.54)"/><path class="cls-4" d="M513,868.87l-11.76-6.52q27.52-63.84,55.06-127.7a37.94,37.94,0,0,0,6.28,4,36.19,36.19,0,0,0,5.88,2.35Q540.67,804.93,513,868.87Z"/><ellipse class="cls-16" cx="607.2" cy="683.46" rx="6.08" ry="6.73" transform="translate(-241.4 343.33) rotate(-26.54)"/><ellipse class="cls-16" cx="573.79" cy="660.37" rx="6.08" ry="6.73" transform="translate(-234.6 325.97) rotate(-26.54)"/><ellipse class="cls-4" cx="610.5" cy="683.2" rx="2.31" ry="2.55" transform="translate(-240.93 344.78) rotate(-26.54)"/><ellipse class="cls-4" cx="574.92" cy="659.1" rx="2.31" ry="2.55" transform="translate(-233.91 326.34) rotate(-26.54)"/><path class="cls-17" d="M574.17,677.7c0,.3.09,7.5,6,11.64a12.14,12.14,0,0,0,11.53,1.35"/><ellipse class="cls-18" cx="609.67" cy="698.09" rx="4.55" ry="7.47" transform="translate(-310.69 807.48) rotate(-55.65)"/><ellipse class="cls-18" cx="560.84" cy="664.75" rx="4.55" ry="7.47" transform="translate(-304.44 752.65) rotate(-55.65)"/><path class="cls-19" d="M619.75,724.78,536,665.12a8.33,8.33,0,0,0-5,3.29,10.27,10.27,0,0,0-1.44,7.69L613.33,736a12.2,12.2,0,0,0,4.48-4.34A13.85,13.85,0,0,0,619.75,724.78Z"/><rect class="cls-20" x="1784" y="14" width="122" height="100" rx="12"/><rect class="cls-20" x="1023" y="726" width="465" height="113" rx="12"/><rect class="cls-21" x="1791.5" y="20.5" width="108" height="89.52" rx="12"/><rect class="cls-21" x="1037.02" y="736.7" width="436.96" height="90.74" rx="12"/><path class="cls-4" d="M1099.75,792.58q5.68,5,10.74,5a6.6,6.6,0,0,0,4.42-1.57,4.84,4.84,0,0,0,1.84-3.82,4.6,4.6,0,0,0-1.31-3.21,18.44,18.44,0,0,0-5-3.15,25.11,25.11,0,0,1-7.92-5.4,10.66,10.66,0,0,1-2.76-7.55,12.85,12.85,0,0,1,4.31-9.8q4.32-4,11.42-4a23.79,23.79,0,0,1,10.14,2.47v11.14q-4.66-4.25-8.94-4.25a5.85,5.85,0,0,0-3.68,1.2,3.61,3.61,0,0,0-1.55,2.91,3.81,3.81,0,0,0,1.27,2.88,15.72,15.72,0,0,0,4.59,2.61,24.89,24.89,0,0,1,8.41,5.35,11.47,11.47,0,0,1,2.87,8.19,14.58,14.58,0,0,1-4.93,11.07,17.06,17.06,0,0,1-12,4.58,27,27,0,0,1-11.87-3.14Z"/><path class="cls-4" d="M1132.37,759.88h31.13v9.46h-10v37.19H1142V769.34h-9.64Z"/><path class="cls-4" d="M1173.41,759.88h11.42l13,46.65H1185.3l-1.75-9.27h-9.45l-1.8,9.27h-11.77Zm5.48,12.74-3.16,16.28H1182Z"/><path class="cls-4" d="M1201.14,759.88h17.7a15.27,15.27,0,0,1,9.74,2.94,10,10,0,0,1,3.73,8.36,11.26,11.26,0,0,1-2.67,7.57,17.73,17.73,0,0,1-8,4.94q6.69,1,8.27,8l3.36,14.82h-12.58l-1.84-12.91a10.66,10.66,0,0,0-1.64-4.78,4.14,4.14,0,0,0-3.52-1.51h-1.06v19.2h-11.48Zm11.48,9.06v10h2.51a5,5,0,0,0,5.51-5.32,4.63,4.63,0,0,0-1.23-3.51,5.3,5.3,0,0,0-3.75-1.17Z"/><path class="cls-4" d="M1234.92,759.88h31.13v9.46h-10v37.19h-11.48V769.34h-9.65Z"/><path class="cls-4" d="M1288.63,792.58q5.7,5,10.75,5a6.58,6.58,0,0,0,4.41-1.57,4.84,4.84,0,0,0,1.84-3.82,4.59,4.59,0,0,0-1.3-3.21,18.36,18.36,0,0,0-5-3.15,25.05,25.05,0,0,1-7.91-5.4,10.67,10.67,0,0,1-2.77-7.55,12.83,12.83,0,0,1,4.32-9.8q4.3-4,11.41-4a23.79,23.79,0,0,1,10.14,2.47v11.14q-4.66-4.25-8.94-4.25a5.82,5.82,0,0,0-3.67,1.2,3.6,3.6,0,0,0-1.56,2.91,3.85,3.85,0,0,0,1.27,2.88,15.81,15.81,0,0,0,4.6,2.61,24.89,24.89,0,0,1,8.41,5.35,11.46,11.46,0,0,1,2.86,8.19,14.54,14.54,0,0,1-4.93,11.07,17.05,17.05,0,0,1-12,4.58,27.08,27.08,0,0,1-11.88-3.14Z"/><path class="cls-4" d="M1322.63,759.88h17.56q6.82,0,10.57,3.46t3.75,9.81a19.06,19.06,0,0,1-1.24,6.64,11.86,11.86,0,0,1-5.2,5.79,18.72,18.72,0,0,1-10,2.45h-3.88v18.5h-11.59Zm11.59,9v10h2.54a6.76,6.76,0,0,0,4.48-1.39,4.76,4.76,0,0,0,1.68-3.89,4.55,4.55,0,0,0-1.29-3.55,5.56,5.56,0,0,0-3.85-1.17Z"/><path class="cls-4" d="M1359.31,759.88h11.59v46.65h-11.59Z"/><path class="cls-4" d="M1378.08,759.88h11.52V797h15.83v9.53h-27.35Z"/><path class="cls-22" d="M1920,1081H0V921c26.46,8.77,80.34,26.62,145,48,95.34,31.53,144.07,47.24,196,45,6.84-.3,24.17-1.35,51-2,42.63-1,73.67-.16,81,0,54,1.17,209.4-6.08,454.76-66.94L928,945c241.47-59.9,399.16-99,568-69,79.82,14.19,76.46,28.6,176,45a1050.57,1050.57,0,0,0,248,11Z"/><rect class="cls-23" x="804.7" y="126.19" width="179.35" height="262.69" rx="12" transform="translate(-36.33 260.92) rotate(-16.27)"/><path class="cls-4" d="M969.6,334.57q-14.79,13-30.25,17.75Q906,362.66,877.79,341.27T836.85,279a141.62,141.62,0,0,1-6.38-50.37q1.46-25.15,15-44.12a68.23,68.23,0,0,1,36.37-26.06q14-4.35,32.33-2.52l13.27,42.79q-14.45-7-27.35-3-16,5-20.57,23.14T884,266q7.71,24.82,21.63,36.89t29.24,7.33q11.2-3.46,21.7-17.75Z"/><rect class="cls-24" x="811.9" y="141.05" width="165.92" height="235.85" rx="12" transform="translate(-36.72 261.11) rotate(-16.27)"/><rect class="cls-25" x="1323.61" y="396.15" width="179.35" height="262.68" rx="12" transform="translate(46.81 -111.55) rotate(4.6)"/><path class="cls-4" d="M1355.53,440.29l69.29,4.42q23.51,1.5,37.36,13.94t12.51,33.63q-1.11,17.4-12.33,29t-32.56,17.3q25.89,5.6,30.36,33.46l9.44,58.78-49.23-3.14-4-50.95q-1.12-12.95-5.24-19.11t-13.37-6.77l-4.15-.26-4.79,75.08-44.94-2.86Zm42.69,38.32-2.5,39.11,9.82.62q10.51.67,16.42-4.86a21,21,0,0,0,6.48-14.56q.58-9.15-4-14t-14.37-5.52Z"/><rect class="cls-26" x="1330.6" y="410.19" width="165.92" height="235.84" rx="12" transform="translate(46.86 -111.57) rotate(4.6)"/><rect class="cls-25" x="1020.25" y="85.4" width="179.35" height="262.68" rx="12" transform="translate(-8.63 50.19) rotate(-2.58)"/><path class="cls-4" d="M1080.78,135l44.72-2.76,62.07,179.36-49,3-9.09-35.81-37,2.28-4.82,36.67-46,2.84Zm24.54,48.52L1096.87,248l24.44-1.51Z"/><rect class="cls-26" x="1027.32" y="99.4" width="165.92" height="235.84" rx="12" transform="translate(-8.66 50.21) rotate(-2.58)"/><rect class="cls-27" x="1539.77" y="439.67" width="179.34" height="262.69" rx="12" transform="translate(254.18 -472.91) rotate(17.89)"/><path class="cls-4" d="M1597.88,466.53l43.21,13.16-42.42,139.17L1658.06,637l-10.89,35.73-102.6-31.25Z"/><rect class="cls-5" x="1546.61" y="453.76" width="165.92" height="235.85" rx="12" transform="translate(254.39 -472.92) rotate(17.89)"/><rect class="cls-27" x="1224.67" y="86.4" width="179.35" height="262.68" rx="12" transform="translate(8.13 -44.42) rotate(1.94)"/><path class="cls-4" d="M1254.29,125.93l45.86.79,21,58.31q9.39,26,14.33,44.95l2.35,0-.57-31,1.24-71.68,43.23.74L1378.59,311l-45.72-.79-21-58.31q-9.39-26-14.32-45.08l-2.49,0,.57,31-1.25,71.81-43.23-.74Z"/><rect class="cls-5" x="1231.69" y="100.43" width="165.92" height="235.84" rx="12" transform="matrix(1, 0.03, -0.03, 1, 8.16, -44.43)"/><rect class="cls-28" x="1124.2" y="395.33" width="179.35" height="262.68" rx="12" transform="translate(14.79 -32.86) rotate(1.56)"/><path class="cls-4" d="M1185.15,440.07l45.45.48-1.95,182.84-45.45-.49Z"/><rect class="cls-29" x="1132.82" y="408.02" width="157.49" height="235.84" rx="12" transform="translate(14.77 -32.8) rotate(1.56)"/><rect class="cls-28" x="1634.32" y="176.93" width="179.34" height="262.7" rx="12" transform="translate(291.55 -699.34) rotate(24.99)"/><path class="cls-4" d="M1695.85,196.34l46.44,20.71-8.56,59.63,38.43-46.31,47.07,21-82,71.92-34.14,76.49-41.26-18.4L1696,304.9Z"/><rect class="cls-29" x="1643.43" y="188.76" width="157.48" height="235.86" rx="12" transform="translate(290.71 -698.72) rotate(24.99)"/><rect class="cls-3" x="1430.1" y="109.5" width="179.35" height="262.69" rx="12" transform="translate(80.37 -303.08) rotate(11.7)"/><path class="cls-4" d="M1477.11,140.36l55.41,10.52q24.92,4.73,39.28,18.93t17.49,36q3.12,21.81-1.57,46.53-7.9,41.6-32.48,63t-62.83,14.09L1443,320Zm37.62,43.3-20.82,109.58,3.13.6q34.44,6.53,45.65-52.44,4.32-22.8-.45-38.11t-21.66-18.52Z"/><rect class="cls-5" x="1438.89" y="121.79" width="157.49" height="235.84" rx="12" transform="translate(80.1 -302.67) rotate(11.7)"/><circle class="cls-4" cx="261.5" cy="113.5" r="50.5"/><circle class="cls-4" cx="171.5" cy="127.5" r="50.5"/><path class="cls-4" d="M136,170c3.51,40.62-33.49,81.32-64,73.91C47.49,238,30.68,201.82,35,170c3.54-26,22.26-56.95,50.5-57C113.44,113,133.68,143.19,136,170Z"/><path class="cls-4" d="M369.52,243.51l-291,3a12.86,12.86,0,0,1-9-3.91,13.13,13.13,0,0,1-3.11-11l-.77-76a12,12,0,0,1,11.87-12.13l291-3a12,12,0,0,1,12.12,11.88l.8,79A12,12,0,0,1,369.52,243.51Z"/><circle class="cls-30" cx="405" cy="123" r="70"/><path class="cls-4" d="M427,201.5c-1.78,25.43-26.5,43.73-51,43.5-24.13-.23-48.25-18.43-50-43.5-1.9-27.16,23.29-50.5,50.5-50.5S428.9,174.29,427,201.5Z"/><circle class="cls-4" cx="344.5" cy="135.5" r="50.5"/><line class="cls-31" x1="457.46" y1="81.38" x2="491.73" y2="61.59"/><line class="cls-31" x1="368.3" y1="64.13" x2="346.99" y2="30.86"/><line class="cls-31" x1="399.66" y1="53.25" x2="401.53" y2="13.72"/><line class="cls-31" x1="432.18" y1="62.9" x2="457.01" y2="32.07"/><line class="cls-31" x1="472.8" y1="106.48" x2="512.38" y2="106.48"/><line class="cls-31" x1="470.84" y1="145.18" x2="508.35" y2="157.79"/><line class="cls-31" x1="444.69" y1="173.47" x2="474.5" y2="199.5"/><path class="cls-32" d="M1830.28,89.65,1825,95.58a4.38,4.38,0,0,1-6.2.34h0a4.45,4.45,0,0,1-.34-6.24l5.27-5.93a4.38,4.38,0,0,1,6.2-.35h0A4.46,4.46,0,0,1,1830.28,89.65Z"/><path class="cls-32" d="M1869.53,36.44l-5,6.18a4.48,4.48,0,0,0,.64,6.23h0a4.38,4.38,0,0,0,6.17-.65l5-6.19a4.46,4.46,0,0,0-.64-6.22h0A4.39,4.39,0,0,0,1869.53,36.44Z"/><path class="cls-32" d="M1819,38.16l6.32,4.77a4.47,4.47,0,0,1,.88,6.2h0a4.37,4.37,0,0,1-6.14.89l-6.33-4.78a4.46,4.46,0,0,1-.88-6.19h0A4.38,4.38,0,0,1,1819,38.16Z"/><rect class="cls-32" x="1836.59" y="27.31" width="16.81" height="8.78" rx="4.39" transform="translate(1813.3 1876.7) rotate(-90)"/><rect class="cls-32" x="1836.59" y="92.8" width="16.81" height="8.78" rx="4.39" transform="translate(1747.81 1942.19) rotate(-90)"/><rect class="cls-32" x="1870.45" y="63.12" width="16.68" height="8.85" rx="4.42" transform="translate(3757.58 135.08) rotate(180)"/><rect class="cls-32" x="1806.38" y="64.88" width="16.68" height="8.85" rx="4.42" transform="translate(3629.44 138.62) rotate(180)"/><path class="cls-32" d="M1867.91,82.85l5.37,5.84a4.46,4.46,0,0,1-.22,6.25h0a4.39,4.39,0,0,1-6.21-.23l-5.37-5.84a4.46,4.46,0,0,1,.23-6.25h0A4.37,4.37,0,0,1,1867.91,82.85Z"/><ellipse class="cls-33" cx="1846.54" cy="63.56" rx="21.72" ry="21.68"/></svg>
