<svg id="Layer_1" data-name="Layer 1" xmlns="http://www.w3.org/2000/svg" viewBox="0 0 672.04 1025.01"><defs><style>.cls-1,.cls-2{fill:none;}.cls-1,.cls-3{stroke:#000;}.cls-1,.cls-2,.cls-3{stroke-miterlimit:10;stroke-width:2.5px;opacity:0.9;}.cls-2{stroke:#0c0c0c;}</style></defs><title>flower_girl</title><path class="cls-1" d="M960.22,466s4.81,11.41,20.29,25.92,6.41,46.15,6.41,46.15-12.82,19.7-26.7,22.81-30.43-1-43.78-10.37-26.69-20.74-45.38-21.77-34.7-.52-51.25,10.88-37.91,50.81-37.91,50.81l-33.63,83.48L730.65,726.8,650.43,950.19s-5.06,16.38-11,35.21-9.27,29.48,14.34,40.13" transform="translate(-633.91 -13.98)"/><path class="cls-1" d="M865.73,691.1S825,801.74,818.1,816.91s-63.26,138-59.83,151.72c0,0-4.19,6.29-18.29-1.85s131.84,47,193.95,52.17" transform="translate(-633.91 -13.98)"/><path class="cls-2" d="M818.1,816.91s0,176.54,9.52,176.93" transform="translate(-633.91 -13.98)"/><path class="cls-1" d="M953.33,561.82s.85,49.12-5.51,65.72-31.41,87.66-31.41,87.66-19.09,64.1-26.64,77.61-23.07,40.55-30.22,49.43-40.7,44.41-40.7,44.41" transform="translate(-633.91 -13.98)"/><path class="cls-1" d="M960.22,560.89s1.22,32.31,0,47.55S946.6,659.1,946.6,659.1l-24.81,77.24s-11.67,31.18-7.29,53.85,14.59,58.11,21.16,71.57l43.19,88.62,34.52,70.82" transform="translate(-633.91 -13.98)"/><path class="cls-1" d="M979.64,952c16.83-43.55,21.91-60.83,20.64-75.22" transform="translate(-633.91 -13.98)"/><path class="cls-1" d="M1167.91,622.07s1.47,14.3,36.81,25.73,75.1,30.75,75.1,30.75,15.46,2.14,22.82,29.31-7.36,50.76-7.36,50.76l-23.56,52.91-35.41,83.65s-5.82,13.59-19.81,36.46a434.74,434.74,0,0,0-24.29,46.48,72.76,72.76,0,0,1-19.88,27.88c-14.73,12.87-26.51,15.2-26.51,15.2s19.88-22.35,27.24-51.66,2.21-74.36,2.21-74.36l-10.3-76.5s-8.84-62.92-7.37-89.37-2.21-82.94,2.21-86.51Z" transform="translate(-633.91 -13.98)"/><path class="cls-1" d="M1145.82,1021.2c-27.68,14.53-24.17,17.94-52.58,16.08s-32.24-7.81-32.24-7.81-2.87,4.71-3.83-13.89,0-71.61,0-71.61,4.47-60.75,9.58-77.18S1084.62,785,1084.62,785s14.69-69.74,13.09-71.6,4.59-69.44,3.57-100.13,4.22-43.44,4.22-43.44l24.41-33.4,6.56-11s4.2,0,4.73,8.16,2.62.76-2.63,17.59-21.52,34.16-21.52,34.16" transform="translate(-633.91 -13.98)"/><path class="cls-1" d="M1167.91,622.07c6.59-53.92,19.75-85.74,23.29-98.09s-7.59-63.44-7.59-63.44l-15.7-41.28s-7.25-31.45-22.09-37.84-13.32,14.74-13.32,14.74l13.32,35.38s20.59,44.23,25.14,64.87,9.62,27.52,6.07,40.29" transform="translate(-633.91 -13.98)"/><path class="cls-1" d="M1138.2,411.3c-10.74,1.76-12.91,9.47-12.91,9.47s-1.44,8.41,3.62,19.64,9.74,20,13.72,32.25,3.19,29.81,3.19,29.81a20.94,20.94,0,0,1,2.78,2.28c5.39,5.19,6.8,11.8,7.23,15.42" transform="translate(-633.91 -13.98)"/><path class="cls-1" d="M1136.47,525.42" transform="translate(-633.91 -13.98)"/><path class="cls-1" d="M1145.82,502.47c-1.56,1.14-10.67,8-10.33,17.93a16.54,16.54,0,0,0,1,5" transform="translate(-633.91 -13.98)"/><path class="cls-1" d="M1144,380.75c2.68,11.75-.75,3.64,2.68,11.75S1166,415.56,1166,415.56" transform="translate(-633.91 -13.98)"/><path class="cls-1" d="M1134.91,453.37l1.16,62.2" transform="translate(-633.91 -13.98)"/><path class="cls-1" d="M1126.33,433.09c-.37,8.26-2.51,28-17.55,44.85-17.27,19.38-40.91,23.15-53.3,25.12a119.76,119.76,0,0,1-34.55,0c-8.51-1.21-19.19-2.72-31.07-8.94a77.91,77.91,0,0,1-28.51-25.86" transform="translate(-633.91 -13.98)"/><path class="cls-1" d="M1012.56,445.59a90,90,0,0,0,33.83,2c7.06-1,15-2,23.41-7.05,13.44-8.05,26.26-23.51,20.93-26.6l-20.62-12c-1.36-.62-19.8-8.63-36.93,1.79-13.2,8-16.38,21.36-16.93,23.91Z" transform="translate(-633.91 -13.98)"/><path class="cls-1" d="M1015.38,446.25l12.56-15.52c4.59-8.42,9.82-12,13.93-13.75,5.83-2.43,15.56-3.6,15.56-3.6h0a47.86,47.86,0,0,1,7.11-.17,49,49,0,0,1,13.12,2.51l.45.16,13.39,2.64" transform="translate(-633.91 -13.98)"/><path class="cls-1" d="M1078.5,416.56a52.12,52.12,0,0,1-11.24,8.56c-5.72,3.23-10.37,4.42-18.26,6.44-8.72,2.23-12.87,2.25-15.37,2.12a39.41,39.41,0,0,1-6.94-1" transform="translate(-633.91 -13.98)"/><path class="cls-1" d="M1017.57,373.08a31.59,31.59,0,0,0-2.1,9.85c-.18,4-.32,7,1.78,8.78,2.6,2.18,6.86,1,7.66.72" transform="translate(-633.91 -13.98)"/><path class="cls-1" d="M1054.67,368.23a18.09,18.09,0,0,1,4.36,4.58c1.49,2.26,3.11,4.72,2.17,7.05s-4,3.17-4.71,3.35" transform="translate(-633.91 -13.98)"/><path class="cls-1" d="M1046,375.4c-1.84,2.3-1.37,3.35-1.27,3.54.71,1.39,4.12,1.58,8.55.16" transform="translate(-633.91 -13.98)"/><path class="cls-1" d="M1032.36,379.2c.64,2.84-.26,3.59-.43,3.72-1.25,1-4.42-.29-7.79-3.43" transform="translate(-633.91 -13.98)"/><path class="cls-1" d="M1132.46,411.3l.69-13.41h0v-.05s-.73,15-.75,15S1132.42,412.2,1132.46,411.3Z" transform="translate(-633.91 -13.98)"/><path class="cls-1" d="M1136.78,381.49l.81-15.87" transform="translate(-633.91 -13.98)"/><path class="cls-1" d="M1197.21,311.5c-3.5-2.53-8.41-5.19-12.86-3.79-2.63.82-3,2.4-7.82,7.59-4.37,4.71-10,9.77-12.73,12.26-4.26,3.85-6.12,5.22-6.23,7.74-.12,2.71,1.91,3.46,2.46,7.18.75,5-2.22,8.27-1,9.15s4.17-1.27,6-3c3.55-3.22,2.72-5.22,6-8.3,2.35-2.21,3-1.4,7.24-4.51s5-4.88,6-4.52c1.77.65,1.92,7.38-1.14,12.66-1.55,2.68-3.51,4.27-5.81,6.13-5.31,4.31-7.17,3.33-10.59,6.62-5,4.78-3.14,8.09-7.39,10.67-3.25,2-7,1.66-13.08,1.14a47.3,47.3,0,0,1-9.29-1.67c-9-2.25-20.59-6.63-24.85-5a7.39,7.39,0,0,0-1.62.88,8.37,8.37,0,0,0-2.76,4.36c-1.51,3.9-9.06,6.55-14.93,5.35-3-.61-4.84-2.12-8.61-5.15-3.5-2.8-5.72-4.58-6.73-7.8-.8-2.53-1.12-6.77,1.3-9.28s5.63-1.68,5.87-3c.31-1.65-5.25-2.64-10-7.38-.5-.51-6.73-6.86-4.73-10.64,1.48-2.78,6.77-3,9.86-2.53s3.51,1.61,8.41,3.51c5.18,2,5.41,1,9.42,2.68,6.18,2.57,5.82,5,11,6.61,4.08,1.24,4.45-.24,9.86,1.13,3,.75,8.34,2.11,9.42,5.77.07.23.8,2.86-.58,4.08-2.55,2.25-9.32-2.84-23.34-6.33-4.49-1.12-6.46-1.26-7.24-.28-1.47,1.85,2,6.79,4.63,10.55a63.25,63.25,0,0,0,8,9.36" transform="translate(-633.91 -13.98)"/><ellipse class="cls-3" cx="510.04" cy="331.04" rx="16.27" ry="11.21"/><path class="cls-1" d="M1087.15,305.85c.56-6.38-2.17-8.66-.24-12.66,1.26-2.61,4.22-5.38,6.8-5,2.3.34,4.22,4.38,8,12.43,1.87,4,2.25,5.25,3.91,7.08,2.42,2.64,4.37,3,7.47,5.08,3.92,2.61,6.07,5.5,8.64,9,5.72,7.71,4.08,10.56,8.64,14.76,5.23,4.8,11.14,4.49,11,5.2-.25,1.51-27,2.67-46.77-11.28-3.82-2.7-10.45-7.52-10.5-13.89C1084.06,312.56,1086.64,311.75,1087.15,305.85Z" transform="translate(-633.91 -13.98)"/><path class="cls-1" d="M1147.2,332.73a57.18,57.18,0,0,1,.35-8.8,34.23,34.23,0,0,1,1.42-7.59c1.36-3.93,3-5.13,4.57-7.8,4.25-7.41,1.64-16.15,1.3-17.23-.39-1.26-3.41-10.88-11-12.95-3.19-.87-3.86.5-11.2,1.38-10.8,1.3-13.49-1.18-17.6,1.55s-5.13,7.71-5.68,10.53c-2.4,12.19,6.13,22.4,8.06,24.61" transform="translate(-633.91 -13.98)"/><path class="cls-1" d="M1155.81,301.28c8.66-.94,13.93-3.74,17.16-6.18,2.7-2,5.82-5.2,8.71-4.31a6.22,6.22,0,0,1,3.2,3.11c1,2.25-.27,3.19.53,5.17,1.13,2.79,5,4.07,7.29,4.84,3.07,1,4,.52,4.8,1.55,1.75,2.2-1.46,5.61.18,7.77,1.34,1.78,3.93,0,6.75,1.9s1.3,4.72,4.45,8.28c2.47,2.81,4.49,2.32,5,4.15.18.68.4,2.62-8,9.84-4.73,4.06-7.09,6.09-9.78,7.25a26.42,26.42,0,0,1-14.59,1.63" transform="translate(-633.91 -13.98)"/><path class="cls-1" d="M1158,367.76c2.26,2.68,6,6.19,11.25,7.29,4.74,1,6.85-.77,16-2.59a126.14,126.14,0,0,1,21-2.24c10-.21,14.24,1.09,15.82-1.39s-2-5.14-1.42-11.73c.33-3.58,1.5-3.78,2.81-9,1.18-4.67,2.6-10.32.39-12.78-2.71-3-11-1.47-20.21,3.66" transform="translate(-633.91 -13.98)"/><path class="cls-1" d="M1041.26,268a97.67,97.67,0,0,0,2.51-19.88,73.16,73.16,0,0,0-2.51-21.63c-1-3.52-1.84-5.95-6-15.63-1-2.39-11.39-26.54-12.43-26.15s6.88,29.89,2.25,32.71a17.36,17.36,0,0,0-4.32,3.94,4.58,4.58,0,0,0-.7,1.29c-2,5.2,4.92,9.24,5.35,18.14.14,3-.6,3.92-1.4,8-2.84,14.48,3.18,19.5,2.87,39.42-.09,5.71-.67,10.71,0,10.81,1.42.22.9-22.85,14.37-31,7.5-4.57,11.1.12,24.42-4.19s19.58-13,22.63-10.81c1.75,1.26.88,5,0,8.72-.81,3.49-3.25,11.6-11.49,19.88a58.61,58.61,0,0,1-18,11.86,70.75,70.75,0,0,1-32,5.58,62.61,62.61,0,0,0,16.88,20.24,65.29,65.29,0,0,0,25.75,12.16" transform="translate(-633.91 -13.98)"/><path class="cls-1" d="M1022.84,184.7c-3.16,2.23-7.88,5.6-13.55,9.83-7.27,5.44-10.91,8.15-12.14,9.53-7.65,8.56-9.25,21.27-7.25,30.92,2.19,10.6,8.9,18.32,8.66,18.46s-3.9-9.89-13.38-15.63c-6.08-3.68-12.11-4.11-20.29-4.68-6-.43-13.77-.89-22.62,2.42-3.72,1.39-7.61,2.85-11.14,6.46-3.34,3.42-3,5.38-7.81,15.83-4.19,9.17-5.05,9.06-6.49,13.88-1.87,6.29-3.49,11.71-1,16.32,3.91,7.19,15.5,8,21.79,8.39,6,.41,10.92-.48,20.45-2.26,15.14-2.83,22.84-5.72,23.28-4.68s-5.61,5.34-13.3,7.91c-9.56,3.19-14.1,1.07-30.6,2.75-15.4,1.56-17.14,4-17.63,5.33-.74,2,.74,3.62,4.83,11.14,5.91,10.88,5,11.51,7,13.4,6.75,6.28,22.08,3.69,32.6-2.1,12-6.6,12.87-14.72,25.27-28.58,12-13.39,26.26-23.46,27.46-22.34.93.87-4.21,9.91-12.84,16.84s-16,7.93-17.75,14.54c-.14.54-1.76,6.53.83,8.35a3,3,0,0,0,.93.42c4.81,1.26,12.66-5.54,12.66-5.54,12.17-10.53,16.89-17.78,18.58-17,1.53.75-.34,7.81-2.5,12.66s-5,8.19-8.6,12.38c-3.14,3.66-5.35,6.23-9.15,8.89-3.34,2.34-6.62,4.64-11.36,5.12-4.28.42-11-.5-12.21-3.77s3.25-9.07,11.65-13.2" transform="translate(-633.91 -13.98)"/><path class="cls-1" d="M924.65,316.62a64.31,64.31,0,0,0-13.43-.7c-7.16.39-8.26,1.68-8.63,2.2-2.15,3.14,1.56,9,2.81,11,4.16,6.59,8.76,7.67,8.6,11.58-.11,2.65-2.26,2.8-2.78,6.19a10.57,10.57,0,0,0,4.44,10c1,.67,3.27,1.85,10.05,1,4.8-.63,12.34-1.62,19.9-7.16,7.79-5.72,10.72-12.7,12.75-11.85,1.74.73-.61,5.77,2.5,9.16,2.25,2.45,6,2.57,9.7,2.69s6.47-.44,12.2-1.89c6.91-1.73,10.37-2.6,13.87-3.77,14.06-4.66,14.33-7.05,24.4-10,9.27-2.67,16.08-4.64,21.07-1.34,6,3.93,3.28,11.38,9.15,17,5.33,5.06,14,5,20.8,4" transform="translate(-633.91 -13.98)"/><path class="cls-1" d="M943.59,235.09a70.11,70.11,0,0,1-7.45-13.56A64.48,64.48,0,0,1,932.08,207c-.78-5-1.71-10.93.63-12.12,1.48-.75,3.17,1,7.17,2.73,3.62,1.57,6.57,2,12.47,2.72,12.8,1.66,14.64-1,22.14.61,10.8,2.26,18.08,10,18.18,9.88s-15.72-7.52-16-17.45c-.15-5.29,4.15-10.64,4.36-10.9,2.11-2.57,3.06-2.28,6.86-6.06,4.59-4.55,5.2-6.95,7.09-6.88,2.32.08,3.63,3.75,5.7,7.79a65.82,65.82,0,0,0,11,15.4" transform="translate(-633.91 -13.98)"/><path class="cls-1" d="M973.54,268.28a20.39,20.39,0,0,0,10.58,11.45c6.37,2.88,13.37,2.26,13.6,1.17s-8.46-2.76-16.62-10.56c-1.52-1.45-3.49-3.34-3-4.11,0,0,.74-1.24,23.57,7.34h0c-19.65-7.61-24-11.12-23.56-12.87.24-1,2.15-1.82,3.31-2.1,1.55-.38,3.12-.15,6.42,1.15a59.87,59.87,0,0,1,6.27,3c6.9,3.48,8,2.69,9.37,4.4,3.43,4.34-1.5,12.51-1.21,12.62s6.91-10,4.24-20.84c-.83-3.35-2.46-6.43-3.47-6.29-1.39.19-.39,6.22-3.18,7.76-2.26,1.24-6.05-1-9.37-3.52" transform="translate(-633.91 -13.98)"/><path class="cls-1" d="M1142.78,278.14a163.84,163.84,0,0,1-4.71-33.84c-.71-21.88,3.73-24.92,5.55-25.75.93-.42,1-.15,7.4,0,11.2.28,11.94-.5,14.8.6,5.35,2.07,4.29,5.43,9.31,7.11s6.77-1.68,13.5-.52c6.19,1.06,7.15,4.32,11.72,3.59a12.08,12.08,0,0,0,7.4-4.79c.45-.66,1.26-2,1.85-5.39.86-4.88,1.76-10.05-.63-12.52-2.19-2.28-6.09-1.16-17.87,1.15-19.74,3.86-22.51,3.4-24,1.79-2.87-3-1.32-9.86,1.85-13.77,1.72-2.13,2.79-2,8.64-5.39,9.35-5.45,9.56-7.53,14.18-8.38,1.07-.2,7.49-1.39,12,2.43,4.15,3.48,4.32,9.07,4.4,12a21.85,21.85,0,0,1-1.23,7.86" transform="translate(-633.91 -13.98)"/><ellipse class="cls-3" cx="518.85" cy="184.68" rx="14.89" ry="8.74"/><path class="cls-1" d="M1159.2,190.79c.85-2.12,6.51-15.8,17.79-19.75a50,50,0,0,1,10.07-2c5.69-.62,8.53-.93,10.66.56,4.59,3.21,2.71,12.08,2.54,12.86" transform="translate(-633.91 -13.98)"/><path class="cls-1" d="M1146.1,190.85a90.79,90.79,0,0,1-7-17.57c-2.72-9.69-4.25-15.47-1-19.58s9.25-4.28,14.11-4.47c3.52-.14,11.89-.46,16.13,4.75,1.55,1.91,2,4,2.88,8.11a46.9,46.9,0,0,1,1,11.38" transform="translate(-633.91 -13.98)"/><path class="cls-1" d="M1138.08,195.11c-5.11-3.07-16.82-10.82-21.78-21.72-1.67-3.69-2-6.44-1.28-9a11.36,11.36,0,0,1,8.43-8.07c5.59-1.05,12.14,3.14,13.92,10.32" transform="translate(-633.91 -13.98)"/><path class="cls-1" d="M1136.65,194.23a54.37,54.37,0,0,1-15.4-11.21,94.15,94.15,0,0,0-7.86-7.84c-4.81-4.18-7.27-6.27-9.77-6-4.72.55-9.09,8-7.44,13.62,1,3.31,3.75,5.14,7,7.22,5.25,3.35,9.9,4.34,15.09,5.57,4.73,1.12,11.58,2.82,20.08,5.23" transform="translate(-633.91 -13.98)"/><path class="cls-1" d="M1150.36,209c0,3.86,1.43,5.54,2.12,6.19,3.71,3.47,12.71,2.27,21.39-4.61" transform="translate(-633.91 -13.98)"/><path class="cls-1" d="M1118.28,195.61c-.22,3.16,0,7.57,3,10.32,3.41,3.16,7.8,1.66,14.11,4a26.27,26.27,0,0,1,11.42,8.49" transform="translate(-633.91 -13.98)"/><path class="cls-1" d="M1142.54,277.14a67.89,67.89,0,0,1,4.73-7.34c3.37-4.56,4.82-5.36,5.92-8.12,1.27-3.22.32-4.71.09-10.69-.33-8.86,1.4-15.29,1.74-15.27s-.91,8.35,1.63,9.31,7.21-6.74,9.19-5.74c1,.52,1,3.24,0,5.35-2.22,4.74-9.34,6.62-9.59,6.14s8.6-8.27,16.73-6.74c2.85.54,7.08,2.49,8.16,6,1.83,5.83-6.81,11.14-4.49,16.24,1.3,2.85,5,3.42,4.69,5.36-.26,1.72-3.25,1.51-4.69,3.76-2.34,3.65,2.49,8.94,1,10.3s-8-2.14-13.47-7.13c-7.15-6.49-12.56-15.48-11-16.84,2.19-1.94,17.71,12.05,18.56,11.09.35-.39-1.88-3.12-4.69-5.35a30.82,30.82,0,0,0-11-5.35c0-.09,17.3,6,18,4.56.36-.76-4-4.06-9.18-5.94-4.72-1.72-8.58-1.7-8.57-2.38s2.62-.71,7.14-2c3.15-.89,7.18-2,7.14-3,0-.74-2.51-1.71-14.28-2.58" transform="translate(-633.91 -13.98)"/><path class="cls-1" d="M1057.72,210.49c7.43-5.74,6.63-15.32,9.17-15.25,1.78,0,4,4.8,2.94,8.58-1,3.61-4.81,5-4.25,6.35.4,1,2.52.62,6.22,1,6.33.57,10.18,2.53,10.47,1.91.4-.85-7.2-3.6-6.87-6.36.39-3.26,11.6-4.35,11.45-5.4-.11-.83-6.95.05-15-2.87-4.73-1.69-4.89-2.89-4.91-3.17-.11-1.93,4.27-4.35,8.51-4.77,7.59-.76,12.21,5.32,14.4,3.81,3.37-2.33-4.76-17.55-3.6-18.11.91-.45,8.55,7.68,9.16,18.43.24,4.14-.64,7.44-2.29,13.67-2.56,9.67-4.43,10.51-4.91,14.62-1,8.69,6.38,13.11,14.08,24.79,11.39,17.29,12.42,33.72,12.78,33.61s-.48-13-8.52-26.31c-6.89-11.45-12.75-12.72-17-24.62-2-5.55-2.86-11.24-4.92-11.29s-2,5.37-6.87,9.86-11,4.87-13.75,5.08c-4.66.37-10.59-.37-10.8-1.9,0-.27,0-1.17,5.57-3.5,9.11-3.82,16.07-4.34,16-5.09,0-1.15-17-.42-17.34-2.54-.15-1.1,4.18-2.81,8.18-3.49a32.05,32.05,0,0,1,13.92,1,67.82,67.82,0,0,1-9.34-2.28c-6.2-2.06-9.38-4.53-10.47-3.49s1.9,4.53.65,6c-1.75,2.1-10.82-.92-10.8-3.5C1049.56,213.56,1053.53,213.74,1057.72,210.49Z" transform="translate(-633.91 -13.98)"/><path class="cls-1" d="M1132.62,279.74A121.27,121.27,0,0,0,1117,241.61a124.41,124.41,0,0,0-25.21-29" transform="translate(-633.91 -13.98)"/><path class="cls-1" d="M1072.09,191.19c-3.62-8.12-12.1-25.29-27-40.58-9-9.31-13.56-14-20-17-5.62-2.61-10.22-3.35-12-7.45-1.29-3-.19-5.79,2.89-14.57,1.76-5,3.35-10.12,5.19-15.12,4.68-12.74,2.78-24.62,0-42-2.11-13.16-3.27-19.83-8.65-24.09-3.16-2.49-6-2.89-11.21-7.59-5-4.51-6.85-8.06-9-7.53-1.22.29-2,1.8-3.46,8.4-2.54,11.8-1.55,14.63-3.47,15.69-3.87,2.12-9.46-8.58-21.92-10.09-6.16-.75-14.1.74-16.15,5-1.56,3.29,1.51,5.69,0,9.53-2.12,5.4-9.68,4.42-11.54,8-4.68,9,32.58,36.62,32.88,36.27a87.93,87.93,0,0,1-13.51-12.23c-11-12.11-12.56-19.31-19.16-20-4.67-.5-9.36,2.53-11.75,5.36-4.31,5.12-1.1,9.54-5.76,15.69-3.25,4.28-5.85,3.52-8.08,7.84-2.13,4.13-1.56,8.3-1.15,11.21.37,2.71,1.36,9.85,6.34,14s10.72,2.25,21.35,2.8c17.4.91,28.89,7.69,28.84,7.85S939.51,109.09,912.8,115c-15,3.32-17.82,9.49-18.46,11.21a13.64,13.64,0,0,0,0,8.93c1.75,4.94,5.41,5.82,15,12.92,9.35,6.95,8.68,8.22,12.69,9.52,9.23,3,17.66-2.15,18.46-.56,1.17,2.33-18.18,11.09-16.73,16.25.9,3.2,9.68,4.44,16.73,2.8,6.3-1.47,10.4-5.06,15.57-10.09,11.86-11.52,14.81-16.54,20.19-21.84,15-14.86,36.16-19.32,36.92-17.93.65,1.18-11.44,10.36-26.53,15.12-15.78,5-32.83,4.51-33.46,1.68-2.09-9.3,34.82-17.52,26-13.44h0c-28.53,5.74-35.15,6.89-35.19,6.72-.08-.35,29-4.13,30-12.88.71-6.56-14.76-12.74-13.85-14.57,1.27-2.54,30.49,10.56,32.88,6.72,2.53-4-26.09-25-24.23-27.45,1.23-1.64,14.74,6,16.16,3.93.93-1.35-4.77-4.84-5.19-11.21-.24-3.58,1.2-7.94,3.46-8.4,3.34-.69,7.72,7.33,9.23,10.08,3.67,6.73,4.64,12.42,5.19,12.33,1-.19-4.34-20.76.58-23,2.3-1,6.67,2,8.65,5.6,3.16,5.71.27,12.82.58,12.88s2.34-16.8,6.92-17.36c3.69-.45,10.87,9.53,8.66,17.49-2.72,9.83-17.61,8.83-21.35,20-2.26,6.76,1.93,10.74-1.16,15.13-3.66,5.2-13.38,5-21.34,3.92" transform="translate(-633.91 -13.98)"/><path class="cls-1" d="M985.48,39.38a77.8,77.8,0,0,1,10.64,37.55" transform="translate(-633.91 -13.98)"/></svg>
